<?xml version="1.0" standalone="no"?>
<!DOCTYPE svg PUBLIC "-//W3C//DTD SVG 20010904//EN"
 "http://www.w3.org/TR/2001/REC-SVG-20010904/DTD/svg10.dtd">
<svg version="1.0" xmlns="http://www.w3.org/2000/svg"
 width="3508.000000pt" height="2480.000000pt" viewBox="0 0 3508.000000 2480.000000"
 preserveAspectRatio="xMidYMid meet">

<g transform="translate(0.000000,2480.000000) scale(0.100000,-0.100000)"
fill="#000000" stroke="none">
<path d="M6165 18989 c-691 -41 -1319 -232 -1874 -568 -265 -161 -492 -342
-721 -577 -687 -703 -1095 -1648 -1191 -2759 -18 -215 -16 -699 5 -880 53
-463 169 -856 367 -1240 189 -369 383 -660 914 -1375 358 -482 470 -637 580
-799 224 -331 387 -654 459 -908 50 -177 58 -243 65 -543 l6 -285 32 -66 c39
-79 102 -140 181 -177 l57 -27 1470 0 1470 0 57 28 c111 55 186 153 207 272 5
33 12 125 15 205 14 391 141 821 353 1192 37 65 121 192 185 281 595 824 815
1144 999 1452 424 708 615 1253 700 1990 17 150 23 714 10 897 -47 641 -197
1215 -456 1743 -409 834 -1077 1471 -1912 1824 -592 250 -1282 362 -1978 320z
m540 -344 c418 -17 883 -119 1274 -279 976 -401 1703 -1234 2016 -2311 118
-407 171 -758 182 -1210 22 -920 -166 -1612 -662 -2440 -175 -292 -423 -656
-829 -1215 -375 -517 -483 -709 -613 -1085 -93 -269 -131 -481 -161 -885 l-7
-95 -162 -3 c-161 -2 -163 -2 -163 19 0 37 200 2532 206 2567 3 19 11 32 19
32 8 0 15 5 15 10 0 6 6 10 13 10 6 0 43 16 80 35 38 19 75 35 83 35 8 0 14 4
14 8 0 4 23 16 50 27 28 11 50 23 50 27 0 4 8 8 19 8 10 0 24 6 30 14 6 8 26
20 44 27 17 7 46 28 63 46 18 18 35 33 39 33 13 0 95 89 95 104 0 9 5 16 10
16 6 0 10 9 10 20 0 11 7 23 15 26 8 4 15 16 15 28 0 12 7 31 15 42 12 16 14
185 15 1267 l0 1247 -120 0 -120 0 0 -1201 c0 -1062 -2 -1207 -16 -1255 -8
-30 -20 -54 -25 -54 -5 0 -9 -7 -9 -16 0 -18 -62 -84 -79 -84 -6 0 -11 -4 -11
-10 0 -5 -9 -10 -19 -10 -11 0 -22 -4 -25 -9 -10 -16 -99 -22 -151 -11 -27 6
-62 14 -77 17 -16 3 -28 9 -28 14 0 5 -6 9 -14 9 -38 0 -126 107 -126 154 0
13 -6 26 -12 28 -10 4 -14 295 -16 1401 l-2 1397 -140 0 -140 0 0 -1127 c0
-981 -2 -1132 -15 -1157 -8 -15 -15 -38 -15 -51 0 -12 -7 -28 -15 -35 -8 -7
-15 -17 -15 -22 0 -15 -72 -88 -87 -88 -7 0 -13 -3 -13 -8 0 -26 -269 -47
-285 -22 -3 6 -15 10 -26 10 -60 0 -188 128 -189 189 0 9 -7 25 -15 35 -13 17
-15 205 -15 1423 l0 1403 -25 0 c-14 0 -25 -4 -25 -10 0 -5 -11 -12 -25 -16
-14 -3 -25 -10 -25 -15 0 -5 -6 -9 -14 -9 -8 0 -45 -16 -82 -35 -37 -19 -73
-35 -80 -35 -8 0 -14 -4 -14 -8 0 -9 -70 -42 -88 -42 -7 0 -12 -4 -12 -10 0
-5 -11 -10 -24 -10 -13 0 -26 -7 -30 -15 -3 -8 -15 -15 -26 -15 -11 0 -20 -4
-20 -10 0 -5 -7 -10 -16 -10 -18 0 -117 -51 -122 -62 -2 -5 -15 -8 -28 -8 -13
0 -24 -4 -24 -8 0 -10 -71 -42 -93 -42 -10 0 -17 -4 -17 -9 0 -5 -11 -12 -25
-15 -14 -4 -25 -11 -25 -16 0 -6 -8 -10 -18 -10 -10 0 -22 -4 -28 -8 -5 -5
-25 -15 -44 -22 -19 -8 -41 -20 -48 -27 -7 -7 -22 -13 -33 -13 -10 0 -19 -4
-19 -10 0 -5 -9 -10 -20 -10 -11 0 -23 -7 -26 -15 -4 -8 -17 -15 -30 -15 -13
0 -24 -4 -24 -10 0 -5 -5 -10 -12 -10 -18 0 -88 -33 -88 -42 0 -4 -7 -8 -15
-8 -8 0 -30 -9 -50 -20 -20 -11 -42 -20 -51 -20 -8 0 -17 -7 -20 -15 -4 -8
-17 -15 -30 -15 -13 0 -24 -4 -24 -10 0 -5 -8 -10 -19 -10 -10 0 -24 -7 -31
-15 -7 -8 -21 -15 -31 -15 -11 0 -19 -4 -19 -10 0 -5 -6 -10 -13 -10 -18 0
-75 -28 -82 -41 -4 -5 -15 -9 -26 -9 -10 0 -19 -4 -19 -10 0 -5 -5 -10 -12
-10 -18 0 -88 -33 -88 -42 0 -4 -11 -8 -25 -8 -14 0 -25 -4 -25 -10 0 -5 -9
-10 -20 -10 -11 0 -29 -9 -40 -20 -20 -20 -20 -33 -20 -1374 0 -817 4 -1357 9
-1361 5 -3 13 -20 17 -37 6 -30 15 -53 36 -88 5 -8 11 -23 14 -32 4 -10 10
-18 14 -18 5 0 12 -9 15 -21 7 -21 79 -99 91 -99 4 0 17 -11 30 -25 13 -14 28
-25 34 -25 5 0 10 -4 10 -10 0 -5 7 -10 15 -10 15 0 24 -3 82 -34 17 -9 54
-16 81 -16 39 0 52 -4 56 -17 3 -10 40 -270 81 -578 182 -1347 255 -1896 255
-1910 0 -13 -32 -15 -237 -15 -131 0 -243 4 -249 8 -8 5 -13 89 -17 272 -5
255 -14 342 -48 480 -62 247 -170 506 -322 770 -145 253 -296 470 -727 1050
-598 804 -770 1059 -950 1415 -253 497 -353 933 -353 1540 -1 755 150 1419
464 2046 256 513 647 974 1093 1293 488 348 1070 565 1706 636 130 15 420 28
520 24 41 -2 138 -6 215 -9z m-333 -4635 c2 -967 6 -1232 16 -1242 6 -6 12
-22 12 -34 0 -12 7 -27 15 -34 8 -7 15 -19 15 -28 0 -17 134 -152 151 -152 6
0 23 -8 37 -19 15 -10 44 -26 65 -36 41 -19 47 -34 17 -42 -11 -3 -20 -9 -20
-14 0 -5 -11 -9 -25 -9 -14 0 -25 -4 -25 -10 0 -5 -11 -12 -25 -16 -14 -3 -25
-10 -25 -15 0 -5 -11 -9 -25 -9 -14 0 -25 -4 -25 -10 0 -5 -7 -10 -15 -10 -9
0 -33 -11 -55 -25 -22 -14 -43 -25 -47 -25 -12 0 -118 -54 -121 -62 -2 -5 -14
-8 -27 -8 -13 0 -25 -5 -27 -10 -2 -6 -13 -12 -25 -13 -13 0 -25 -7 -27 -14
-3 -7 -14 -13 -25 -13 -11 0 -21 -3 -23 -7 -1 -5 -29 -20 -60 -35 -32 -16 -84
-40 -115 -55 -32 -16 -59 -31 -61 -35 -2 -5 -12 -8 -22 -8 -20 0 -83 -30 -88
-42 -2 -5 -14 -8 -27 -8 -13 0 -25 -3 -27 -7 -5 -13 -68 -43 -89 -43 -10 0
-19 -4 -19 -10 0 -5 -13 -10 -28 -10 -16 0 -32 -3 -36 -7 -19 -19 -171 -31
-248 -20 -43 6 -78 15 -78 19 0 4 -10 8 -21 8 -12 0 -32 11 -45 25 -13 14 -26
25 -30 25 -11 0 -54 53 -69 85 -47 99 -45 41 -45 1353 0 1088 2 1232 15 1232
8 0 15 5 15 10 0 6 8 10 19 10 10 0 24 7 31 15 7 8 21 15 31 15 11 0 19 5 19
10 0 6 9 10 20 10 11 0 38 11 60 25 22 14 44 25 49 25 5 0 40 15 77 34 38 18
101 48 139 66 39 18 108 50 155 72 47 22 101 48 120 57 19 9 37 19 38 24 2 4
15 7 28 7 13 0 24 5 24 10 0 6 9 10 19 10 11 0 26 7 35 15 8 8 24 15 35 15 12
0 21 5 21 10 0 6 6 10 14 10 17 0 80 32 84 43 2 4 12 7 22 7 20 0 83 30 88 43
2 4 14 7 27 7 13 0 25 3 27 8 4 9 99 60 115 61 10 1 13 -265 15 -1229z m982
-1610 c13 -107 19 -135 32 -148 8 -7 14 -20 14 -28 0 -9 11 -30 25 -48 14 -18
25 -38 25 -44 0 -7 7 -12 15 -12 8 0 15 -5 15 -11 0 -12 25 -39 36 -39 4 0 17
-11 30 -25 13 -14 27 -25 32 -25 5 0 24 -7 42 -17 19 -9 47 -19 64 -22 31 -7
49 -31 22 -31 -9 0 -16 -4 -16 -10 0 -5 -17 -16 -37 -26 -79 -34 -148 -69
-151 -76 -2 -5 -15 -8 -28 -8 -13 0 -24 -4 -24 -10 0 -5 -11 -12 -25 -16 -14
-3 -25 -10 -25 -15 0 -5 -6 -9 -13 -9 -7 0 -68 -27 -135 -60 -66 -33 -126 -60
-131 -60 -6 0 -11 -4 -11 -10 0 -5 -11 -10 -25 -10 -14 0 -25 -5 -25 -10 0 -6
-8 -13 -17 -16 -33 -11 -168 -79 -171 -86 -2 -5 -15 -8 -28 -8 -13 0 -24 -4
-24 -8 0 -9 -70 -42 -88 -42 -7 0 -12 -4 -12 -9 0 -5 -13 -12 -30 -16 -16 -4
-30 -11 -30 -16 0 -5 -11 -9 -25 -9 -14 0 -25 -4 -25 -10 0 -5 -13 -10 -29
-10 -16 0 -42 -7 -57 -15 -40 -21 -242 -21 -270 0 -10 8 -29 15 -41 15 -13 0
-23 5 -23 10 0 6 -7 10 -15 10 -8 0 -15 4 -15 10 0 5 -11 12 -25 16 -14 3 -25
9 -25 13 0 3 -18 26 -40 51 -22 25 -40 52 -40 61 0 9 -7 19 -15 23 -8 3 -15
14 -15 25 0 10 -7 32 -15 47 -23 44 -20 126 5 147 11 9 29 17 39 17 10 0 21 7
25 15 3 8 12 15 21 15 8 0 23 4 33 9 9 5 31 15 47 22 17 8 32 17 35 20 8 10
72 39 85 39 7 0 18 7 25 15 7 8 21 15 31 15 11 0 19 5 19 10 0 6 11 10 25 10
14 0 25 4 25 9 0 5 11 12 25 15 14 4 25 11 25 16 0 6 11 10 25 10 14 0 25 4
25 8 0 5 18 15 40 22 22 7 45 19 51 27 6 7 20 13 30 13 10 0 21 5 24 10 3 6
15 10 25 10 10 0 20 3 22 8 4 10 67 42 84 42 8 0 14 5 14 10 0 6 11 10 24 10
13 0 26 7 30 15 3 8 11 15 19 15 13 0 88 32 117 50 8 5 31 17 50 26 19 9 51
24 70 33 19 9 37 19 38 24 2 4 12 7 22 7 10 0 22 5 25 10 3 6 17 10 31 10 15
0 24 6 24 15 0 9 9 15 25 15 14 0 25 4 25 9 0 11 42 20 52 12 3 -4 9 -26 12
-51z m-1638 -760 c4 -27 10 -50 15 -50 5 0 9 -15 9 -34 0 -21 6 -36 15 -40 8
-3 15 -13 15 -21 0 -9 6 -23 13 -30 29 -33 37 -45 37 -55 0 -5 4 -10 9 -10 5
0 31 -21 58 -47 27 -27 60 -57 74 -68 37 -31 173 -95 201 -95 13 0 28 -4 34
-9 5 -5 52 -14 104 -20 97 -11 264 0 301 20 10 5 26 9 36 9 10 0 51 16 90 35
40 19 77 35 83 35 5 0 10 5 10 10 0 6 11 10 24 10 13 0 26 4 28 8 2 5 53 32
113 61 61 29 132 63 158 77 27 13 55 24 63 24 8 0 14 5 14 10 0 6 6 10 14 10
17 0 80 32 84 43 2 4 14 7 27 7 13 0 25 3 27 8 5 10 77 46 83 40 3 -2 -39
-553 -93 -1224 l-97 -1219 -670 0 -669 0 -103 765 c-56 421 -129 965 -162
1210 -34 245 -64 473 -67 508 -7 61 -6 62 17 62 13 0 31 5 39 10 8 5 25 10 37
10 19 0 23 -7 29 -50z"/>
<path d="M13747 15809 c-325 -44 -577 -282 -632 -595 -19 -109 -19 -159 0
-269 46 -262 230 -474 486 -559 213 -71 512 -50 710 49 l69 35 0 130 c0 128 0
130 -23 136 -17 4 -37 -4 -68 -24 -104 -70 -242 -106 -404 -106 -172 0 -281
41 -376 141 -163 173 -168 484 -9 657 96 104 207 148 375 149 131 1 227 -22
347 -85 57 -29 85 -38 103 -34 25 6 25 7 25 126 l0 120 -47 30 c-130 83 -369
125 -556 99z"/>
<path d="M23807 15809 c-325 -44 -577 -282 -632 -595 -19 -109 -19 -159 0
-269 46 -262 230 -474 486 -559 213 -71 512 -50 710 49 l69 35 0 130 c0 128 0
130 -23 136 -17 4 -37 -4 -68 -24 -104 -70 -242 -106 -404 -106 -172 0 -281
41 -376 141 -163 173 -168 484 -9 657 96 104 207 148 375 149 131 1 227 -22
347 -85 57 -29 85 -38 103 -34 25 6 25 7 25 126 l0 120 -47 30 c-130 83 -369
125 -556 99z"/>
<path d="M14577 15772 c-14 -15 -17 -40 -17 -118 0 -65 4 -104 12 -112 9 -9
76 -12 240 -12 l228 0 0 -568 c0 -428 3 -571 12 -580 8 -8 49 -12 118 -12 91
0 109 3 123 18 15 17 17 72 17 580 l0 562 223 0 c160 0 226 3 235 12 8 8 12
49 12 118 0 69 -4 110 -12 118 -9 9 -155 12 -593 12 -551 0 -583 -1 -598 -18z"/>
<path d="M17547 15772 c-14 -15 -17 -42 -17 -154 0 -241 -27 -549 -71 -813
-32 -195 -22 -175 -88 -175 -31 0 -62 -5 -69 -12 -9 -9 -12 -76 -12 -238 0
-277 -9 -260 141 -260 68 0 109 4 117 12 8 8 12 50 12 125 l0 113 425 0 425 0
0 -108 c0 -142 0 -142 141 -142 68 0 109 4 117 12 17 17 17 469 0 486 -7 7
-40 12 -80 12 l-68 0 0 563 c0 534 -1 565 -18 580 -17 15 -65 17 -479 17 -433
0 -461 -1 -476 -18z m698 -692 l0 -445 -262 -3 c-246 -2 -263 -1 -263 15 0 10
9 72 20 138 31 190 48 345 61 553 l13 192 215 -2 216 -3 0 -445z"/>
<path d="M18987 15772 c-16 -17 -17 -80 -17 -694 0 -641 1 -676 18 -691 17
-15 67 -17 518 -17 376 0 503 3 512 12 18 18 16 222 -1 237 -10 7 -133 12
-393 13 l-379 3 -3 178 -2 177 290 0 c182 0 299 4 311 10 17 10 19 22 19 119
0 78 -4 112 -13 120 -9 7 -111 12 -308 13 l-294 3 0 135 0 135 374 3 c256 1
378 6 388 13 9 8 13 41 13 114 0 86 -3 104 -18 118 -17 15 -67 17 -509 17
-462 0 -491 -1 -506 -18z"/>
<path d="M21787 15772 c-14 -15 -17 -40 -17 -118 0 -65 4 -104 12 -112 9 -9
76 -12 240 -12 l228 0 0 -568 c0 -428 3 -571 12 -580 8 -8 49 -12 118 -12 91
0 109 3 123 18 15 17 17 72 17 580 l0 562 223 0 c160 0 226 3 235 12 16 16 16
220 0 236 -9 9 -155 12 -593 12 -551 0 -583 -1 -598 -18z"/>
<path d="M26117 15772 c-16 -17 -17 -80 -17 -694 0 -641 1 -676 18 -691 15
-14 40 -17 128 -17 72 0 114 4 122 12 9 9 12 91 12 306 0 161 4 292 9 290 4
-1 150 -139 322 -305 l314 -303 152 0 153 0 6 27 c7 25 -18 52 -350 377 -196
193 -357 354 -356 357 0 4 149 141 330 304 182 164 330 302 330 307 0 5 -5 18
-10 29 -10 17 -23 19 -156 19 l-144 0 -188 -167 c-103 -92 -236 -212 -297
-266 l-110 -99 -3 254 c-2 224 -4 254 -19 266 -11 8 -54 12 -123 12 -91 0
-109 -3 -123 -18z"/>
<path d="M15915 15760 c-5 -15 67 -159 266 -533 l272 -512 -19 -34 c-31 -57
-66 -76 -138 -76 -51 0 -74 6 -124 32 -36 18 -70 29 -82 26 -19 -5 -20 -13
-20 -119 l0 -114 38 -24 c97 -61 243 -78 352 -41 69 23 151 103 200 195 19 36
136 317 261 625 169 418 224 564 217 578 -8 15 -25 17 -142 17 -98 0 -135 -3
-139 -12 -150 -390 -241 -625 -260 -672 l-24 -59 -26 44 c-14 24 -99 191 -189
372 l-163 327 -137 0 c-128 0 -137 -1 -143 -20z"/>
<path d="M20322 15768 c-9 -9 -12 -167 -12 -688 0 -643 1 -678 18 -693 15 -14
40 -17 123 -17 68 0 109 4 117 12 9 9 12 92 12 310 l0 298 330 0 330 0 0 -298
c0 -218 3 -301 12 -310 8 -8 49 -12 118 -12 91 0 109 3 123 18 16 17 17 80 17
694 0 565 -2 677 -14 687 -9 8 -54 11 -132 9 l-119 -3 -5 -260 -5 -260 -325 0
-325 0 -5 260 -5 260 -120 3 c-85 2 -124 -1 -133 -10z"/>
<path d="M24722 15768 c-9 -9 -12 -167 -12 -688 0 -656 1 -677 19 -694 18 -16
47 -17 373 -14 379 5 411 9 516 62 159 81 242 255 214 449 -15 96 -41 155 -93
212 -51 55 -108 90 -192 118 -53 18 -96 21 -312 26 l-250 6 -5 265 -5 265
-120 3 c-85 2 -124 -1 -133 -10z m747 -803 c60 -35 76 -67 76 -150 0 -86 -16
-115 -86 -155 -43 -24 -51 -25 -261 -28 l-218 -4 0 182 0 181 228 -3 c206 -3
230 -5 261 -23z"/>
<path d="M27711 15099 c-266 -598 -302 -684 -292 -705 10 -24 13 -24 146 -24
l136 0 13 33 c8 17 37 89 66 160 l52 127 311 -2 311 -3 62 -155 62 -155 133
-3 c125 -3 135 -1 151 18 16 19 3 49 -284 693 -165 369 -302 678 -305 685 -4
9 -40 12 -132 12 l-126 0 -304 -681z m629 -141 c0 -5 -90 -8 -200 -8 -110 0
-200 2 -200 4 0 2 41 100 91 217 50 118 95 225 101 239 8 21 21 -4 109 -210
54 -129 99 -238 99 -242z"/>
<path d="M13207 13772 c-16 -17 -17 -69 -17 -694 0 -641 1 -676 18 -691 15
-14 40 -17 123 -17 68 0 109 4 117 12 9 9 12 75 12 234 l0 222 253 4 c204 4
262 8 307 23 190 60 309 193 340 376 32 188 -65 391 -228 477 -121 64 -131 65
-537 70 -354 3 -371 3 -388 -16z m703 -253 c62 -13 126 -60 154 -114 43 -82
17 -201 -56 -255 -60 -44 -98 -50 -329 -50 l-219 0 0 208 c0 115 3 212 7 215
11 11 388 8 443 -4z"/>
<path d="M16387 13772 c-14 -15 -17 -42 -17 -154 0 -241 -27 -549 -71 -813
-32 -195 -22 -175 -88 -175 -31 0 -62 -5 -69 -12 -9 -9 -12 -76 -12 -238 0
-277 -9 -260 141 -260 68 0 109 4 117 12 8 8 12 50 12 125 l0 113 425 0 425 0
0 -108 c0 -142 0 -142 141 -142 68 0 109 4 117 12 17 17 17 469 0 486 -7 7
-40 12 -80 12 l-68 0 0 563 c0 534 -1 565 -18 580 -17 15 -65 17 -479 17 -433
0 -461 -1 -476 -18z m698 -692 l0 -445 -262 -3 c-246 -2 -263 -1 -263 15 0 10
9 72 20 138 31 190 48 345 61 553 l13 192 215 -2 216 -3 0 -445z"/>
<path d="M14811 13099 c-266 -598 -302 -684 -292 -705 10 -24 13 -24 146 -24
l136 0 13 33 c8 17 37 89 66 160 l52 127 311 -2 311 -3 62 -155 62 -155 133
-3 c125 -3 135 -1 151 18 16 19 3 49 -284 693 -165 369 -302 678 -305 685 -4
9 -40 12 -132 12 l-126 0 -304 -681z m629 -141 c0 -5 -90 -8 -200 -8 -110 0
-200 2 -200 4 0 2 41 100 91 217 50 118 95 225 101 239 8 21 21 -4 109 -210
54 -129 99 -238 99 -242z"/>
<path d="M17981 13099 c-266 -598 -302 -684 -292 -705 10 -24 13 -24 146 -24
l136 0 13 33 c8 17 37 89 66 160 l52 127 311 -2 311 -3 62 -155 62 -155 133
-3 c125 -3 135 -1 151 18 16 19 3 49 -284 693 -165 369 -302 678 -305 685 -4
9 -40 12 -132 12 l-126 0 -304 -681z m629 -141 c0 -5 -90 -8 -200 -8 -110 0
-200 2 -200 4 0 2 41 100 91 217 50 118 95 225 101 239 8 21 21 -4 109 -210
54 -129 99 -238 99 -242z"/>
<path d="M16267 11772 c-14 -15 -17 -42 -17 -154 0 -241 -27 -549 -71 -813
-32 -195 -22 -175 -88 -175 -31 0 -62 -5 -69 -12 -9 -9 -12 -76 -12 -238 0
-277 -9 -260 141 -260 68 0 109 4 117 12 8 8 12 50 12 125 l0 113 425 0 425 0
0 -108 c0 -142 0 -142 141 -142 68 0 109 4 117 12 17 17 17 469 0 486 -7 7
-40 12 -80 12 l-68 0 0 563 c0 534 -1 565 -18 580 -17 15 -65 17 -479 17 -433
0 -461 -1 -476 -18z m698 -692 l0 -445 -262 -3 c-246 -2 -263 -1 -263 15 0 10
9 72 20 138 31 190 48 345 61 553 l13 192 215 -2 216 -3 0 -445z"/>
<path d="M13065 11760 c-5 -15 67 -159 266 -533 l272 -512 -19 -34 c-31 -57
-66 -76 -138 -76 -51 0 -74 6 -124 32 -36 18 -70 29 -82 26 -19 -5 -20 -13
-20 -119 l0 -114 38 -24 c97 -61 243 -78 352 -41 69 23 151 103 200 195 19 36
136 317 261 625 169 418 224 564 217 578 -8 15 -25 17 -142 17 -98 0 -135 -3
-139 -12 -150 -390 -241 -625 -260 -672 l-24 -59 -26 44 c-14 24 -99 191 -189
372 l-163 327 -137 0 c-128 0 -137 -1 -143 -20z"/>
<path d="M14691 11099 c-266 -598 -302 -684 -292 -705 10 -24 13 -24 146 -24
l136 0 13 33 c8 17 37 89 66 160 l52 127 311 -2 311 -3 62 -155 62 -155 133
-3 c125 -3 135 -1 151 18 16 19 3 49 -284 693 -165 369 -302 678 -305 685 -4
9 -40 12 -132 12 l-126 0 -304 -681z m629 -141 c0 -5 -90 -8 -200 -8 -110 0
-200 2 -200 4 0 2 41 100 91 217 50 118 95 225 101 239 8 21 21 -4 109 -210
54 -129 99 -238 99 -242z"/>
<path d="M5120 8620 c-223 -34 -416 -210 -475 -435 -20 -79 -20 -280 0 -360
43 -169 157 -309 312 -385 128 -62 69 -60 1544 -60 1298 0 1348 1 1421 19 260
67 427 277 444 557 19 316 -137 554 -426 650 -52 18 -123 19 -1410 20 -745 1
-1380 -2 -1410 -6z m2773 -329 c59 -29 129 -106 145 -159 16 -52 15 -217 -2
-264 -21 -60 -72 -115 -134 -145 l-57 -28 -1337 -3 c-1324 -2 -1337 -2 -1391
18 -67 25 -122 77 -153 144 -20 43 -24 67 -24 151 0 84 4 108 24 150 36 77
104 133 191 155 17 5 629 7 1360 7 l1330 -2 48 -24z"/>
<path d="M5184 7209 c-12 -20 8 -272 27 -349 41 -158 144 -317 274 -423 75
-60 196 -121 300 -149 78 -21 94 -22 715 -22 689 -1 687 -1 829 55 146 58 289
177 377 314 83 129 115 243 121 438 l5 147 -1320 0 c-941 0 -1323 -3 -1328
-11z m2306 -309 c0 -28 -59 -121 -112 -176 -71 -74 -170 -127 -269 -143 -42
-7 -263 -11 -616 -11 -517 0 -554 1 -628 20 -93 24 -151 56 -222 122 -50 48
-129 178 -116 192 11 11 1963 7 1963 -4z"/>
</g>
</svg>
