<svg width="27" height="32" viewBox="0 0 27 32" fill="none" xmlns="http://www.w3.org/2000/svg">
<path d="M3.11893 31.9846C2.60082 31.9836 2.09187 31.8437 1.64217 31.5787C0.629525 30.9876 0 29.8404 0 28.5949V3.3898C0 2.14085 0.629525 0.997058 1.64217 0.406042C2.10258 0.133511 2.62562 -0.00663853 3.15662 0.000241654C3.68761 0.00712184 4.20707 0.16078 4.66068 0.445154L25.5759 13.3397C26.0118 13.6212 26.3712 14.0122 26.6202 14.4758C26.8693 14.9395 27 15.4607 27 15.9906C27 16.5205 26.8693 17.0417 26.6202 17.5054C26.3712 17.9691 26.0118 18.36 25.5759 18.6415L4.6573 31.5396C4.19309 31.8286 3.66138 31.9824 3.11893 31.9846Z" fill="#FA7C46"/>
</svg>
